<svg xmlns="http://www.w3.org/2000/svg" width="250" height="250"><circle cx="125" cy="125" r="125" data-name="Ellipse 8" style="display:inline;fill:#dd0031;stroke-width:2.45874"/><path d="M125 37.639c-10.287.75-15.916.393-16.725 7.134-.123 1.032-.403 4.605-.638 7.446a75 75 0 0 0-21.893 8.98c-2.135-1.807-4.84-4.12-5.646-4.754-5.34-4.195-9.067.038-16.871 6.782-6.744 7.804-10.977 11.532-6.782 16.87.635.808 2.947 3.512 4.754 5.647a75 75 0 0 0-8.98 21.893c-2.841.235-6.414.515-7.446.638-6.741.81-6.384 6.438-7.134 16.725.75 10.287.393 15.916 7.134 16.725 1.032.123 4.605.403 7.446.638a75 75 0 0 0 8.98 21.893c-1.807 2.135-4.12 4.839-4.754 5.646-4.195 5.34.038 9.067 6.782 16.871 7.804 6.744 11.532 10.977 16.87 6.782.808-.635 3.512-2.947 5.647-4.754a75 75 0 0 0 21.893 8.98c.235 2.841.515 6.414.638 7.446.81 6.741 6.438 6.384 16.725 7.134 10.287-.75 15.916-.393 16.725-7.134.123-1.032.403-4.605.638-7.446a75 75 0 0 0 21.893-8.98c2.135 1.807 4.839 4.12 5.646 4.754 5.34 4.195 9.067-.038 16.871-6.782 6.744-7.804 10.977-11.532 6.782-16.87-.635-.808-2.947-3.512-4.754-5.647a75 75 0 0 0 8.98-21.893c2.841-.235 6.414-.515 7.446-.638 6.741-.81 6.384-6.438 7.134-16.725-.75-10.287-.393-15.916-7.134-16.725-1.01-.12-4.536-.396-7.28-.625a75 75 0 0 0-9.095-21.964c1.778-2.101 4.075-4.79 4.703-5.588 4.195-5.34-.038-9.067-6.782-16.871-7.804-6.744-11.532-10.977-16.87-6.782-.8.628-3.488 2.925-5.589 4.703a75 75 0 0 0-21.964-9.095c-.229-2.744-.504-6.27-.625-7.28-.81-6.741-6.438-6.384-16.725-7.134zM125 75a50 50 0 0 1 50 50 50 50 0 0 1-50 50 50 50 0 0 1-50-50 50 50 0 0 1 50-50z" style="display:inline;opacity:1;fill:#fff;stroke-width:36.2542"/></svg>